<?xml version="1.0" standalone="no"?>
<!DOCTYPE svg PUBLIC "-//W3C//DTD SVG 20010904//EN"
 "http://www.w3.org/TR/2001/REC-SVG-20010904/DTD/svg10.dtd">
<svg version="1.0" xmlns="http://www.w3.org/2000/svg"
 width="709.000000pt" height="709.000000pt" viewBox="0 0 709.000000 709.000000"
 preserveAspectRatio="xMidYMid meet">

<g transform="translate(0.000000,709.000000) scale(0.100000,-0.100000)"
fill="#000000" stroke="none">
<path d="M3314 7029 c-1075 -68 -2055 -631 -2663 -1529 -532 -785 -717 -1742
-520 -2685 106 -512 356 -1036 695 -1460 113 -141 389 -417 524 -524 527 -418
1090 -657 1760 -748 187 -25 676 -25 864 0 428 58 780 166 1151 356 207 105
335 185 510 316 271 203 498 430 700 700 132 175 211 303 316 510 190 371 298
723 356 1151 25 188 25 677 0 864 -91 670 -330 1233 -748 1760 -107 135 -383
411 -524 524 -688 550 -1545 821 -2421 765z m111 -1849 c926 -55 1738 -260
2374 -598 233 -124 294 -198 295 -357 1 -68 -3 -89 -27 -136 -85 -174 -280
-237 -453 -146 -423 224 -658 315 -1066 417 -445 110 -858 163 -1381 177 -556
14 -1097 -47 -1597 -183 -71 -19 -108 -24 -146 -19 -111 13 -214 89 -262 194
-35 74 -37 183 -5 253 24 53 90 128 137 158 75 46 473 139 787 184 161 24 454
52 609 59 164 8 581 6 735 -3z m-155 -1200 c810 -51 1588 -277 2182 -637 99
-59 158 -152 158 -248 0 -89 -55 -184 -134 -230 -98 -58 -199 -50 -321 25
-260 159 -661 319 -1025 409 -405 100 -750 141 -1184 141 -429 0 -796 -47
-1151 -146 -102 -29 -141 -35 -182 -31 -135 14 -240 128 -242 263 -1 76 25
141 79 195 53 53 107 74 354 135 443 108 979 154 1466 124z m61 -1140 c556
-43 1010 -164 1464 -390 310 -155 365 -201 373 -310 6 -79 -17 -139 -69 -183
-80 -69 -157 -74 -261 -17 -366 199 -603 296 -912 370 -300 73 -567 102 -926
102 -379 0 -657 -29 -1076 -113 -172 -35 -207 -39 -241 -30 -165 45 -223 234
-109 359 38 42 90 60 292 101 276 56 613 102 839 114 147 8 503 6 626 -3z"/>
</g>
</svg>
